<?xml version="1.0" encoding="UTF-8" standalone="no"?>
<svg
   width="187.472"
   height="71.640015"
   viewBox="0 0 187.472 71.640015"
   version="1.1"
   id="svg39"
   sodipodi:docname="Zappfy.svg"
   xmlns:inkscape="http://www.inkscape.org/namespaces/inkscape"
   xmlns:sodipodi="http://sodipodi.sourceforge.net/DTD/sodipodi-0.dtd"
   xmlns="http://www.w3.org/2000/svg"
   xmlns:svg="http://www.w3.org/2000/svg">
  <sodipodi:namedview
     id="namedview39"
     pagecolor="#505050"
     bordercolor="#eeeeee"
     borderopacity="1"
     inkscape:showpageshadow="0"
     inkscape:pageopacity="0"
     inkscape:pagecheckerboard="0"
     inkscape:deskcolor="#505050" />
  <!-- Generator: Sketch 43.2 (39069) - http://www.bohemiancoding.com/sketch -->
  <title
     id="title1">Letter</title>
  <desc
     id="desc1">Created with Sketch.</desc>
  <defs
     id="defs1" />
  <g
     id="Page-1"
     stroke="none"
     stroke-width="1"
     fill="none"
     fill-rule="evenodd"
     transform="translate(-37.728001,-342.064)">
    <g
       id="Letter">
      <g
         id="1-color-logotype"
         transform="translate(37,342)"
         fill="#000000">
        <g
           id="g20">
          <g
             id="g12"
             transform="translate(10,12)">
            <path
               d="m 13.14838,31 c 0,0.191983 0.02929,0.585508 0.120153,1.108687 0.153065,0.88133 0.427858,1.76035 0.848326,2.567353 1.170517,2.246575 3.226994,3.562241 6.637212,3.562241 h 1.465212 l 7.1e-5,3 H 0.9108582 c -0.001367,0 -0.001367,0 -0.001654,-3 h 1.5041001 c 3.4721261,0 5.5659566,-1.320796 6.7544692,-3.569951 C 9.5936411,33.862413 9.8718629,32.984896 10.026823,32.105149 10.118762,31.583193 10.14838,31.190848 10.14838,31 Z"
               id="path11"
               fill-rule="nonzero" />
            <path
               d="M 0.97153045,0.00581859 21.192437,0 c 0,0 0.02362,8.7382813 -10.098644,8.7382813 -10.12226255,0 -10.12226255,-8.73246271 -10.12226255,-8.73246271 z"
               id="path12" />
          </g>
          <g
             id="g14">
            <path
               d="m 13.034519,38.58736 c -0.648366,0.372121 -1.312979,0.875616 -2.00278,1.564495 C 6.4675291,44.709961 6.2890623,57.608002 6.2890623,57.608002 L 35.392,57.608 c 0.576003,0 1.019998,0.215998 1.332,0.648 0.312002,0.432002 0.468,0.935997 0.468,1.512 0,0.576003 -0.155998,1.091998 -0.468,1.548 C 36.411998,61.772002 35.968003,62 35.392,62 H 2.456 c -1.1520058,0 -1.728,-0.551995 -1.728,-1.656 0,-0.528003 2.2075462,-17.85816 7.9360623,-23.192145 1.6404357,-1.527456 3.7518317,-2.466339 4.3388977,-2.399536 0.587067,0.0668 0.699619,0.178589 0.85727,0.413208 0.15765,0.234619 0.394015,0.731588 0.393158,1.285401 -7.74e-4,0.499524 -0.159977,0.975037 -0.317627,1.265777 -0.157651,0.290741 -0.901242,0.870655 -0.901242,0.870655 z"
               id="path13" />
            <path
               d="m 18.581421,4.252935 c -0.648366,0.3721206 -1.312979,0.8756163 -2.00278,1.5644954 -4.56421,4.5581056 -4.742676,17.4561466 -4.742676,17.4561466 l 29.102937,-2e-6 c 0.576003,0 1.019999,0.215998 1.332,0.648 0.312002,0.432002 0.468,0.935997 0.468,1.512 0,0.576003 -0.155998,1.091998 -0.468,1.548 -0.312001,0.456002 -0.755997,0.684 -1.332,0.684 H 8.0029023 c -1.1520057,0 -1.728,-0.551995 -1.728,-1.656 0,-0.528003 2.2075463,-17.8581602 7.9360627,-23.1921446 1.640435,-1.5274562 3.751831,-2.4663391 4.338897,-2.39953612 0.587067,0.066803 0.699619,0.17858886 0.85727,0.41320801 0.157651,0.23461911 0.394015,0.73158761 0.393158,1.28540041 -7.74e-4,0.4995241 -0.159976,0.9750374 -0.317627,1.2657776 -0.157651,0.2907401 -0.901242,0.8706547 -0.901242,0.8706547 z"
               id="path14"
               transform="rotate(180,24.506902,14.040063)" />
          </g>
          <g
             id="g18"
             transform="translate(43)">
            <path
               d="m 118.804,20.957172 c 1.05537,-0.125412 2.63696,0.0622 2.78,0.562828 l 9.864,26.496 9.288,-26.496 c 0.288,-0.672003 0.816,-1.008 1.584,-1.008 0.624,0 1.26,0.227998 1.908,0.684 0.648,0.456002 0.972,0.995997 0.972,1.62 0,0.288001 -0.048,0.479999 -0.144,0.576 l -11.16,30.24 -1.296,3.528 c -0.24,0.624003 -0.708,1.751992 -1.404,3.384 -0.696,1.632008 -1.284,2.807996 -1.764,3.528 l -1.872,2.88 c -0.816,1.200006 -1.596,2.063997 -2.34,2.592 -0.744,0.528003 -1.644,1.019998 -2.7,1.476 -1.05601,0.456002 -2.13599,0.684 -3.24,0.684 -1.44001,0 -2.16,-0.695993 -2.16,-2.088 0,-1.440007 0.48,-2.16 1.44,-2.16 2.20801,0 4.25999,-1.331987 6.156,-3.996 1.89601,-2.664013 3.32399,-5.96398 4.284,-9.9 L 117.82419,24.832 H 108.296 V 53.2 c 0,0.528003 -0.24,0.959998 -0.72,1.296 -0.48,0.336002 -1.056,0.504 -1.728,0.504 -0.624,0 -1.152,-0.167998 -1.584,-0.504 -0.432,-0.336002 -0.648,-0.767997 -0.648,-1.296 V 13.312 c 0,-3.600018 1.27199,-6.7079869 3.816,-9.324 2.54401,-2.6160131 5.54398,-3.924 9,-3.924 h 1.8 c 0.576,0 1.056,0.21599784 1.44,0.648 0.384,0.4320022 0.576,0.9359971 0.576,1.512 0,0.5760029 -0.192,1.067998 -0.576,1.476 -0.384,0.408002 -0.864,0.612 -1.44,0.612 h -1.224 c -2.44801,0 -4.49999,0.8519915 -6.156,2.556 -1.65601,1.7040085 -2.508,3.731988 -2.556,6.084 v 7.992 h 10.296 c 0.0726,0 0.14325,0.0044 0.212,0.01317 z"
               id="path15" />
            <path
               d="M 68.768,69.904 V 22.672 c 0,-0.480002 0.215998,-0.887998 0.648,-1.224 0.432002,-0.336002 0.983997,-0.504 1.656,-0.504 0.624003,0 1.151998,0.167998 1.584,0.504 0.432002,0.336002 0.648,0.743998 0.648,1.224 v 3.312 c 0.864004,-1.536008 2.135992,-2.831995 3.816,-3.888 1.680008,-1.056005 3.623989,-1.584 5.832,-1.584 3.552018,0 6.599987,1.319987 9.144,3.96 2.544013,2.640013 3.816,5.807982 3.816,9.504 v 7.848 c 0,3.600018 -1.283987,6.779986 -3.852,9.54 -2.568013,2.760014 -5.531983,4.14 -8.892,4.14 -2.112011,0 -4.055991,-0.539995 -5.832,-1.62 -1.776009,-1.080005 -3.071996,-2.387992 -3.888,-3.924 v 19.944 c 0,0.432002 -0.227998,0.839998 -0.684,1.224 -0.456002,0.384002 -1.019997,0.576 -1.692,0.576 -0.624003,0 -1.163998,-0.191998 -1.62,-0.576 -0.456002,-0.384002 -0.684,-0.791998 -0.684,-1.224 z m 4.68,-25.848 c 0,1.296007 0.899991,2.807991 2.7,4.536 1.800009,1.728009 3.851988,2.592 6.156,2.592 2.352012,0 4.427991,-0.95999 6.228,-2.88 1.800009,-1.92001 2.7,-4.079988 2.7,-6.48 v -7.848 c 0,-2.352012 -0.899991,-4.463991 -2.7,-6.336 -1.800009,-1.872009 -3.923988,-2.808 -6.372,-2.808 -2.304012,0 -4.331991,0.839992 -6.084,2.52 -1.752009,1.680008 -2.628,3.887986 -2.628,6.624 z"
               id="path16" />
            <path
               d="M 33.92,69.904 V 22.672 c 0,-0.480002 0.215998,-0.887998 0.648,-1.224 0.432002,-0.336002 0.983997,-0.504 1.656,-0.504 0.624003,0 1.151998,0.167998 1.584,0.504 0.432002,0.336002 0.648,0.743998 0.648,1.224 v 3.312 c 0.864004,-1.536008 2.135992,-2.831995 3.816,-3.888 1.680008,-1.056005 3.623989,-1.584 5.832,-1.584 3.552018,0 6.599987,1.319987 9.144,3.96 2.544013,2.640013 3.816,5.807982 3.816,9.504 v 7.848 c 0,3.600018 -1.283987,6.779986 -3.852,9.54 -2.568013,2.760014 -5.531983,4.14 -8.892,4.14 -2.112011,0 -4.055991,-0.539995 -5.832,-1.62 C 40.711991,52.803995 39.416004,51.496008 38.6,49.96 v 19.944 c 0,0.432002 -0.227998,0.839998 -0.684,1.224 -0.456002,0.384002 -1.019997,0.576 -1.692,0.576 -0.624003,0 -1.163998,-0.191998 -1.62,-0.576 C 34.147998,70.743998 33.92,70.336002 33.92,69.904 Z M 38.6,44.056 c 0,1.296007 0.899991,2.807991 2.7,4.536 1.800009,1.728009 3.851989,2.592 6.156,2.592 2.352012,0 4.427991,-0.95999 6.228,-2.88 1.800009,-1.92001 2.7,-4.079988 2.7,-6.48 v -7.848 c 0,-2.352012 -0.899991,-4.463991 -2.7,-6.336 -1.800009,-1.872009 -3.923988,-2.808 -6.372,-2.808 -2.304011,0 -4.331991,0.839992 -6.084,2.52 -1.752009,1.680008 -2.628,3.887986 -2.628,6.624 z"
               id="path17" />
            <path
               d="m 0.008,46 c 0,-3.696019 1.4279857,-6.263993 4.284,-7.704 2.8560143,-1.440007 7.019973,-2.16 12.492,-2.16 h 3.672 v -1.728 c 0,-2.640013 -0.695993,-4.93199 -2.088,-6.876 -1.392007,-1.94401 -3.527986,-2.916 -6.408,-2.916 -1.92001,0 -3.6599922,0.347996 -5.22,1.044 -1.5600078,0.696003 -2.3879995,1.044 -2.484,1.044 -0.5760029,0 -1.0319983,-0.263997 -1.368,-0.792 -0.3360017,-0.528003 -0.504,-1.103997 -0.504,-1.728 0,-0.912005 1.0319897,-1.751996 3.096,-2.52 2.0640103,-0.768004 4.2719882,-1.152 6.624,-1.152 4.512023,0 7.81199,1.307987 9.9,3.924 2.08801,2.616013 3.132,5.93998 3.132,9.972 v 18.72 c 0,0.528003 -0.215998,0.971998 -0.648,1.332 C 24.055998,54.820002 23.504003,55 22.832,55 22.207997,55 21.692002,54.820002 21.284,54.46 20.875998,54.099998 20.672,53.656003 20.672,53.128 V 49.96 C 17.455984,53.656019 13.83202,55.504 9.8,55.504 6.9199856,55.504 4.5680091,54.700008 2.744,53.092 0.91999088,51.483992 0.008,49.120016 0.008,46 Z m 4.68,-0.432 c 0,2.01601 0.5759942,3.515995 1.728,4.5 1.1520058,0.984005 2.6639906,1.476 4.536,1.476 2.256011,0 4.40399,-0.839992 6.444,-2.52 2.04001,-1.680008 3.06,-3.359992 3.06,-5.04 v -4.608 h -3.024 c -1.92001,0 -3.539993,0.072 -4.86,0.216 -1.320007,0.144001 -2.6279935,0.407998 -3.924,0.792 -1.2960065,0.384002 -2.2799966,1.007996 -2.952,1.872 -0.6720034,0.864004 -1.008,1.967993 -1.008,3.312 z"
               id="path18" />
          </g>
          <g
             id="g19"
             transform="translate(19,25)">
            <circle
               id="circle18"
               cx="2.5"
               cy="2.5"
               r="2.5" />
            <circle
               id="circle19"
               cx="2.5"
               cy="11.5"
               r="2.5" />
          </g>
        </g>
      </g>
    </g>
  </g>
</svg>
