<?xml version="1.0" encoding="UTF-8" standalone="no"?>
<svg
   width="71.320831"
   height="104.29791"
   viewBox="0 0 71.320831 104.29791"
   version="1.1"
   id="svg39"
   sodipodi:docname="Zappfy.svg"
   xmlns:inkscape="http://www.inkscape.org/namespaces/inkscape"
   xmlns:sodipodi="http://sodipodi.sourceforge.net/DTD/sodipodi-0.dtd"
   xmlns="http://www.w3.org/2000/svg"
   xmlns:svg="http://www.w3.org/2000/svg">
  <sodipodi:namedview
     id="namedview39"
     pagecolor="#505050"
     bordercolor="#eeeeee"
     borderopacity="1"
     inkscape:showpageshadow="0"
     inkscape:pageopacity="0"
     inkscape:pagecheckerboard="0"
     inkscape:deskcolor="#505050" />
  <!-- Generator: Sketch 43.2 (39069) - http://www.bohemiancoding.com/sketch -->
  <title
     id="title1">Letter</title>
  <desc
     id="desc1">Created with Sketch.</desc>
  <defs
     id="defs1" />
  <g
     id="Page-1"
     stroke="none"
     stroke-width="1"
     fill="none"
     fill-rule="evenodd"
     transform="translate(-34.235909,-533.70209)">
    <g
       id="Letter">
      <g
         id="1-color-symbol"
         transform="translate(34,533)"
         fill="#000000">
        <g
           id="g6">
          <g
             id="g2"
             transform="translate(17,20)">
            <path
               d="m 21.751901,52.822581 c 0,0.0434 0.005,0.186027 0.02188,0.412663 0.03069,0.411374 0.08696,0.878218 0.175206,1.385082 0.252146,1.448303 0.704569,2.892012 1.394381,4.212751 1.910128,3.657201 5.24915,5.788206 10.867036,5.788206 h 2.487453 l 1.19e-4,6 H 0.52308486 c -0.002322,0 -0.002322,0 -0.002807,-6 H 3.0737492 c 5.7245726,0 9.1273378,-2.141261 11.0673498,-5.80364 0.698465,-1.31857 1.156361,-2.759274 1.411531,-4.204409 0.08926,-0.505539 0.14617,-0.971068 0.177202,-1.381144 0.01707,-0.225556 0.02207,-0.367138 0.02207,-0.409509 z"
               id="path1"
               fill-rule="nonzero" />
            <path
               d="M 0.62608658,0.33243472 34.954603,0.32258065 c 0,0 0.0401,14.79870235 -17.14421,14.79870235 -17.18430642,0 -17.18430642,-14.78884828 -17.18430642,-14.78884828 z"
               id="path2" />
          </g>
          <g
             id="g4">
            <path
               d="M 21.128369,65.349561 C 20.027655,65.979766 18.899359,66.83246 17.7283,67.99911 9.9797586,75.718482 9.6767802,97.561938 9.6767802,97.561938 l 49.4073128,-2e-6 c 0.977865,0 1.731625,0.365802 2.261302,1.097419 0.529677,0.731616 0.794512,1.585155 0.794512,2.560645 0,0.97549 -0.264835,1.84935 -0.794512,2.62161 C 60.815718,104.61387 60.061958,105 59.084093,105 H 3.1694884 c -1.9557307,0 -2.93358142,-0.93483 -2.93358142,-2.80452 0,-0.89419 3.74769482,-30.243655 13.47285002,-39.277015 2.784925,-2.586821 6.369388,-4.176865 7.366036,-4.063731 0.996648,0.113134 1.187724,0.302449 1.455364,0.699788 0.26764,0.397339 0.66891,1.238979 0.667454,2.176888 -0.0013,0.845968 -0.271587,1.651273 -0.539227,2.143655 -0.26764,0.492383 -1.530015,1.474496 -1.530015,1.474496 z"
               id="path3" />
            <path
               d="M 30.545203,7.2025512 C 29.444489,7.8327554 28.316193,8.6854499 27.145135,9.8520998 19.396593,17.571472 19.093614,39.414928 19.093614,39.414928 l 49.407313,-3e-6 c 0.977866,0 1.731625,0.365803 2.261303,1.09742 0.529677,0.731616 0.794511,1.585156 0.794511,2.560645 0,0.975489 -0.264834,1.849351 -0.794511,2.621613 -0.529678,0.772262 -1.283437,1.158387 -2.261303,1.158387 H 12.586323 c -1.955731,0 -2.9335818,-0.93483 -2.9335818,-2.804516 0,-0.894198 3.7476948,-30.243659 13.4728498,-39.2770193 2.784926,-2.586821 6.369388,-4.1768646 7.366036,-4.06373052 0.996648,0.11313408 1.187724,0.30244892 1.455364,0.69978772 0.26764,0.3973389 0.66891,1.2389791 0.667455,2.1768878 -0.0013,0.8459682 -0.271588,1.6512731 -0.539228,2.1436556 -0.26764,0.4923825 -1.530015,1.4744959 -1.530015,1.4744959 z"
               id="path4"
               transform="rotate(180,40.604741,23.777526)" />
          </g>
          <g
             id="g5"
             transform="translate(31,42)">
            <ellipse
               id="ellipse4"
               cx="4.5"
               cy="4.5725808"
               rx="4.2441859"
               ry="4.233871" />
            <ellipse
               id="ellipse5"
               cx="4.5"
               cy="19.814516"
               rx="4.2441859"
               ry="4.233871" />
          </g>
        </g>
      </g>
    </g>
  </g>
</svg>
